<?xml version="1.0" encoding="UTF-8"?>
<svg id="Camada_2" data-name="Camada 2" xmlns="http://www.w3.org/2000/svg" viewBox="0 0 72.07 113.43">
  <defs>
    <style>
      .cls-1 {
        fill: #a5852b;
      }
    </style>
  </defs>
  <g id="Camada_1-2" data-name="Camada 1">
    <path class="cls-1" d="m72.07,113.29c-7.88.5-15.74-.39-23.38-2.65-1.1-.32-2.21-.68-3.32-1.08-1.1-.39-2.2-.81-3.26-1.24-16.1-6.59-28.92-18.97-36.09-34.87C-1.18,57.51-1.95,39.63,3.86,23.11,6.89,14.47,11.52,6.7,17.61,0c-.15,4.49-.11,8.65.11,12.68.39,6.82,1.55,14.18,3.55,22.5,1.93,8.02,4.12,14.88,6.68,20.95,5.85,13.9,13.6,26.46,23.03,37.31,7.03,8.1,13.95,14.6,21.09,19.84Z"/>
  </g>
</svg>