<?xml version="1.0" encoding="UTF-8"?>
<svg id="Camada_2" data-name="Camada 2" xmlns="http://www.w3.org/2000/svg" viewBox="0 0 115.07 115.06">
  <defs>
    <style>
      .cls-1 {
        fill: #a5852b;
      }
    </style>
  </defs>
  <g id="Camada_1-2" data-name="Camada 1">
    <path class="cls-1" d="m114.96,53.97c-.47-7.42-2.34-14.59-5.57-21.33-3.23-6.73-7.67-12.69-13.17-17.69-5.7-5.18-12.31-9.11-19.63-11.69C66.22-.38,55.1-.98,44.43,1.51c-10.37,2.44-19.86,7.69-27.41,15.16-.37.37-.74.74-1.13,1.15l-.06.06c-5.62,5.9-9.85,12.83-12.57,20.58-4.92,14.01-4.27,29.17,1.83,42.71,6.08,13.48,16.95,23.98,30.6,29.57.9.37,1.83.72,2.76,1.05.93.33,1.88.64,2.81.92,6.95,2.05,14.11,2.76,21.28,2.13.64-.05,1.3-.12,1.97-.21,10.48-1.29,20.4-5.44,28.7-12,8.52-6.73,14.95-15.74,18.56-26.04,2.58-7.33,3.64-14.93,3.16-22.63ZM76.06,4.81c7.12,2.5,13.53,6.32,19.06,11.35,5.35,4.86,9.65,10.65,12.79,17.19,3.15,6.55,4.96,13.52,5.41,20.73.47,7.46-.57,14.86-3.07,21.98-3.52,10.01-9.75,18.76-18.04,25.3-8.06,6.37-17.7,10.4-27.88,11.66-.16.02-.32.04-.48.06-.15.01-.29.04-.43.05s-.29.03-.43.04c-.19.01-.38.04-.57.05-.17.01-.34.04-.51.04-.14.01-.3.02-.45.04-.14.01-.3.02-.45.03-6.5.41-12.97-.32-19.26-2.18-.9-.27-1.82-.56-2.74-.89-.9-.32-1.81-.66-2.68-1.02-13.27-5.43-23.83-15.63-29.74-28.73C.67,67.35.03,52.62,4.82,39.01c2.5-7.12,6.31-13.52,11.33-19.04.09-.11.19-.22.3-.32.09-.11.19-.22.3-.32.12-.12.23-.25.35-.37l.04-.05s.09-.09.12-.13c.1-.11.2-.21.3-.3.09-.1.19-.21.3-.3.11-.12.22-.22.32-.32,7.34-7.28,16.55-12.36,26.63-14.74,10.36-2.43,21.16-1.84,31.25,1.7Z"/>
  </g>
</svg>