<?xml version="1.0" encoding="UTF-8"?>
<svg id="Camada_2" data-name="Camada 2" xmlns="http://www.w3.org/2000/svg" viewBox="0 0 148.6 115.06">
  <defs>
    <style>
      .cls-1 {
        fill: #f4f4f4;
      }
    </style>
  </defs>
  <g id="Camada_1-2" data-name="Camada 1">
    <g>
      <path class="cls-1" d="m142.06,67.87c-.45.49-1.03.81-1.62,1.07-2.95,1.34-5.63,3.17-8.33,4.89-2.45,1.57-5.02,2.82-7.57,4.15-.33.17-.69.33-.98.57-.68.56-.64,1.17.07,1.68,1.03.74,2.31,1.05,3.3,1.86.36.29.78.13,1.17-.07,2-1.06,4.01-2.12,6.01-3.18.15-.07.29-.2.44-.26.47-.2,1-.47,1.42.02.46.55,0,1-.36,1.33-.98.88-1.78,1.99-3.08,2.51-1.09.44-1.7,1.25-1.71,2.45,0,.76-.43,1.22-1.06,1.51-.61.27-.98-.21-1.44-.51-1.29-.86-2.47-1.92-4-2.4-.16-.05-.33-.14-.44-.26-1.37-1.44-3.33-1.98-4.83-3.15-1.1-.86-2.17-1.74-3.38-2.41-1.71-.95-3.17-2.25-4.71-3.42-1.37-1.05-3.21-1.63-4.02-3.4-.14-.32-.48-.62-.81-.76-.87-.37-1.47-1.08-2.2-1.56-1.43-.93-2.7-2.08-4.17-2.96-1.26-.77-2.6-1.5-3.58-2.69-.21-.26-.5-.5-.8-.63-2.15-.9-4.05-2.25-6.03-3.44-3.69-2.22-7.56-4.01-11.45-5.83-2.13-.99-4.32-1.84-6.44-2.85-1.21-.57-2.35-1.35-3.54-2.01-.72-.4-1.52-.57-2.25-.95-1.72-.89-3.29-2.07-5.12-2.76-.47-.18-.9-.23-1.38.02-.91.47-1.85.91-2.78,1.34-.59.26-1.17.54-1.03,1.32.13.75.52,1.32,1.25,1.64,2.66,1.13,5.38,2.17,7.82,3.7,1.25.78,2.61,1.06,3.89,1.65,1.76.82,3.52,1.62,5.24,2.54,1.3.7,2.67,1.22,3.94,1.93,1.95,1.09,3.96,2.08,5.86,3.31,1.29.83,2.49,1.85,4,2.39,1,.36,1.97,1.04,2.74,1.75,1.21,1.1,2.83,1.67,3.85,3.01.19.26.56.39.87.53.66.32,1.3.64,1.64,1.34.05.12.15.27.27.3,1.64.48,2.47,2.16,4.05,2.71.13.04.29.11.34.22.88,1.58,2.67,2.18,3.81,3.49.49.57,1.32.66,1.8,1.13,1.96,1.92,4.7,2.66,6.66,4.66.86.88,2.21,1.53,3.46,2.1,1.28.59,2.27,1.79,3.61,2.26,1.71.6,2.63,2.34,4.39,2.83.45.13.67.53.64,1.05-.03.53-.38.73-.79.82-.76.17-1.57.19-2.11-.46-.96-1.15-2.35-1.66-3.56-2.36-1.19-.69-2.18-1.81-3.63-2.04-.11-.02-.24-.15-.31-.26-1.01-1.54-2.74-2.04-4.2-2.95-.15-.08-.31-.14-.45-.25-1.63-1.39-3.74-2.15-5.3-3.56-1.26-1.14-2.74-1.99-3.91-3.22-.26-.27-.59-.48-.91-.67-.76-.46-1.54-.88-2.02-1.7-.13-.22-.41-.36-.64-.5-1.71-1.01-3.23-2.27-4.69-3.6-1.24-1.13-2.82-1.77-4.1-2.8-1.31-1.04-2.81-1.76-4.14-2.76-.86-.66-1.8-1.25-2.74-1.77-1.83-1.03-3.62-2.12-5.62-2.88-1.26-.48-2.34-1.5-3.64-2.05-1.76-.75-3.49-1.56-5.27-2.23-1-.38-1.79-1.09-2.81-1.45-2.41-.85-4.55-2.33-6.94-3.27-.82-.32-1.68-.8-2.33-1.37-1.06-.93-2.35-1.21-3.55-1.75-.18-.08-.42-.15-.6-.1-1.53.44-2.95,1.15-4.27,1.99-.65.41.17,2.16,1.11,2.45,1.92.59,3.67,1.57,5.4,2.56,2.01,1.17,4.14,2.01,6.32,2.76.9.31,1.69.88,2.5,1.33,2.23,1.24,4.78,1.81,6.87,3.19,1.81,1.2,3.79,2.03,5.6,3.19,1.34.86,2.75,1.6,4.08,2.47,1.16.77,2.26,1.63,3.41,2.42,1.43.98,2.81,2.02,4.32,2.88.33.19.62.41.87.7.62.69,1.58,1.11,2.08,1.75,1.14,1.46,3.1,1.87,4.04,3.48.05.09.11.22.18.24,1.56.46,2.41,1.99,3.89,2.55.16.06.36.1.46.22,1.14,1.34,2.74,2.1,4.14,3.09,1.9,1.36,3.79,2.76,5.96,3.71.28.13.58.26.78.48,1.26,1.41,3,2.07,4.54,3.04,1.09.68,2.1,1.47,3.26,2.06.45.23.9.47,1.37.64.31.11.59.24.72.54.21.46.57,1,.18,1.44-.48.53-1.32.58-1.82.27-1.24-.79-2.69-1.13-3.84-2.12-1.24-1.06-2.68-1.86-4.04-2.76-2.07-1.37-4.19-2.63-6.24-4.02-2.27-1.53-4.6-3-6.83-4.57-1.28-.91-2.53-1.97-3.81-2.86-1.67-1.15-2.82-2.81-4.61-3.86-1.21-.72-2.51-1.6-3.57-2.68-.9-.91-2.08-1.51-3.11-2.31-2.33-1.83-4.94-3.25-7.48-4.77-.91-.53-1.85-.91-2.62-1.73-.56-.6-1.57-.77-2.36-1.15-2.34-1.11-4.65-2.26-6.95-3.46-1.71-.88-3.59-1.42-5.34-2.25-1.19-.57-2.47-.92-3.55-1.79-.93-.75-2.15-1.13-3.27-1.63-1.29-.56-2.63-1.04-3.73-2.01-1.59-1.38-3.03-1.45-4.79-.42-.53.31-1.1.6-1.68.78-.59.18-1.06.44-1.05,1.08,0,.65.39,1.17.99,1.46,2.62,1.28,5.28,2.5,7.88,3.84,2.11,1.08,4.33,1.88,6.46,2.9,1.88.91,3.69,1.95,5.6,2.79,1.75.77,3.37,1.78,5.08,2.62,1.61.79,3.05,1.9,4.55,2.9,1.03.69,2.15,1.3,3.24,1.91,1.3.73,2.22,2.06,3.76,2.39.73,1.7,2.87,1.8,3.77,3.35.32.56,1.22.44,1.67.95,1.16,1.34,2.68,2.35,4.08,3.31,1.43.97,2.57,2.25,3.99,3.23,2.23,1.54,4.62,2.84,6.79,4.49,1.19.9,2.43,1.81,3.84,2.5,1.07.52,2.01,1.47,3.14,2.03,2.53,1.27,4.62,3.24,7.15,4.51.35.18.63.43.83.75.27.41.45.91.17,1.36-.33.54-.86.32-1.3.15-.78-.31-1.61-.52-2.23-1.21-.35-.38-.94-.55-1.42-.79-.21-.1-.51-.1-.66-.25-1.51-1.54-3.59-2.21-5.27-3.46-1.19-.89-2.64-1.43-3.6-2.65-.44-.55-1.19-.69-1.78-.96-1.57-.71-2.83-1.86-4.24-2.77-1.43-.92-3.05-1.7-4.18-3.08-.64-.78-1.6-1.16-2.39-1.73-1.6-1.16-2.92-2.67-4.66-3.62-.24-.13-.54-.26-.66-.48-.53-1-1.56-1.36-2.35-2.02-1.08-.9-2.17-1.76-3.37-2.44-1.55-.86-2.85-2.07-4.41-2.93-1.13-.63-2.18-1.46-3.31-2.15-1.88-1.14-3.76-2.33-5.82-3.1-.97-.36-1.62-1.11-2.53-1.52-1.68-.76-3.41-1.42-5.07-2.19-1.62-.75-3.21-1.59-4.86-2.28-1.39-.58-2.77-1.19-4.03-1.98-1.95-1.21-4.16-1.89-6.03-3.3-1.13-.84-2.66-1.42-4.18-.3-.65.49-1.44.8-2.24,1.03-.49.14-1.08.26-.95.98.12.67.23,1.4,1.08,1.57,1.11.23,2.01.95,3.07,1.31,2.07.71,3.71,2.26,5.74,3.01.9.34,1.82.72,2.76.99,1,.28,2.07.66,2.84,1.31,1.28,1.1,2.84,1.49,4.29,2.14,1.99.87,3.92,1.86,5.73,3.07.82.55,1.74.94,2.59,1.39,1.28.69,2.42,1.62,3.73,2.28,1.34.68,2.47,1.79,3.73,2.67,1.33.93,2.83,1.66,4.01,2.73,1.3,1.18,2.95,1.88,4.1,3.23.25.29.49.57.82.77.3.18.67.28.87.53,1.18,1.49,3.09,2.1,4.3,3.55.23.28.53.43.86.53.57.17,1.04.47,1.44.94.42.5.92.91,1.61,1.04.2.04.48.09.56.23.78,1.36,2.3,1.77,3.42,2.68.97.79,2.11,1.39,3.22,1.98,1.56.84,2.95,1.93,4.4,2.94,1.05.73,2.14,1.45,3.24,2.08,1.33.76,2.59,1.65,3.96,2.34.48.24.81.62,1.13,1.03.24.29.77.56.33,1.02-.43.45-.94.88-1.63.49-1.54-.87-3.16-1.66-4.62-2.6-1.17-.76-2.26-1.73-3.49-2.42-1.38-.79-2.69-1.72-4.06-2.53-1.2-.7-2.53-1.37-3.47-2.46-.47-.54-1.27-.48-1.67-.95-.96-1.14-2.31-1.68-3.52-2.38-1.44-.82-2.6-1.98-4.02-2.8-.61-.36-1.22-.77-1.55-1.46-.28-.56-.85-.81-1.36-1.06-.73-.37-1.33-.84-1.74-1.54-.18-.31-.44-.51-.78-.64-.71-.26-1.24-.84-1.86-1.22-1.47-.88-2.63-2.18-4.15-2.99-1.02-.54-1.88-1.36-2.76-2.06-2.07-1.65-4.47-2.73-6.63-4.2-1.77-1.2-3.59-2.43-5.72-3.08-1.15-.35-2.15-1.15-3.23-1.72-1.2-.64-2.47-1.12-3.67-1.74-1.06-.55-2.18-.94-3.27-1.38-2.12-.86-4.03-2.12-6.11-3.05-1.51-.67-3.03-1.31-4.53-2.01-.21-.09-.37-.3-.55-.46-1.8-1.65-2.83-1.81-5.04-.82-.62.27-1.29.47-1.95.65-.62.17-1.18.49-1.16,1.12.02.64.38,1.2,1.05,1.54,2.1,1.09,4.3,1.97,6.37,3.12,1.05.59,2.2,1.05,3.32,1.55,1.05.46,2.1.91,3.13,1.43,1.71.84,3.49,1.54,5.21,2.38,1.46.71,2.86,1.53,4.3,2.29.81.43,1.6.98,2.47,1.23,1.35.39,2.23,1.61,3.63,1.87.03,0,.07.02.09.04,1.67,2.06,4.29,2.8,6.31,4.41,1.2.95,2.45,2.05,3.93,2.67.37.16.59.47.82.76.56.75,1.17,1.43,2.14,1.63.38.08.57.37.78.63.47.6.99,1.14,1.77,1.32.07.02.16.03.19.07,1,1.47,2.89,1.92,3.9,3.31.65.9,1.69,1.13,2.44,1.83,1.39,1.3,3.26,1.93,4.71,3.14,1.11.93,2.41,1.51,3.57,2.34,1.26.9,2.55,1.81,3.87,2.63,1.35.85,2.78,1.54,4.11,2.44,1.28.86,2.44,1.95,3.9,2.55.46.19.82.48,1.02.96.17.4.07.73-.17,1.05-.25.34-.56.16-.85.09-1.87-.5-3.46-1.55-5.04-2.59-1.22-.81-2.42-1.65-3.73-2.28-.03-.02-.07-.02-.09-.04-1.21-1.3-2.92-1.91-4.26-3.05-.91-.78-2.08-1.27-3.17-1.82-.47-.23-.91-.42-1.27-.82-.48-.54-1.02-1-1.76-1.19-.62-.17-.91-.88-1.43-1.13-1.56-.75-2.75-2.01-4.1-3.01-1.4-1.05-3.03-1.83-4.14-3.27-.42-.55-.92-1-1.61-1.23-.36-.11-.68-.35-.88-.68-.42-.72-1.05-1.15-1.83-1.4-.23-.07-.52-.16-.63-.34-.77-1.24-2.06-1.76-3.23-2.45-2.39-1.4-4.4-3.33-6.89-4.63-2.09-1.08-4.1-2.41-6.17-3.55-2.38-1.3-4.84-2.52-7.42-3.43-1.05-.37-1.93-1.06-2.98-1.49-2.16-.88-4.46-1.58-6.39-2.94-1.89-1.33-4.16-1.89-6.03-3.27-1.44-1.07-3.16-1.61-4.97-.58-.59.34-1.24.6-1.88.84-.65.24-.98.75-.84,1.35.15.64.36,1.38,1.2,1.52,1.2.19,2.12,1.02,3.26,1.38,1.39.43,2.63,1.22,3.88,1.98,2.27,1.38,4.97,1.85,7.18,3.21,1.79,1.11,3.74,1.79,5.59,2.72,1.12.57,2.28,1.1,3.34,1.74,1.21.74,2.45,1.46,3.7,2.14,1.28.69,2.47,1.52,3.74,2.23,1.21.68,2.61,1.18,3.49,2.38.18.24.42.51.68.62,1.48.59,2.64,1.69,3.88,2.59,1.34.97,2.77,1.88,4,3.03.12.11.2.35.33.38,1.48.36,2.12,1.64,2.98,2.68.15.17.38.32.6.37.75.18,1.28.6,1.7,1.22.31.46.76.78,1.31.96.19.06.45.12.55.26.99,1.35,2.62,1.78,3.9,2.68,2.14,1.48,4.15,3.17,6.56,4.29,1.11.53,2.11,1.48,3.22,2.14,1.54.91,2.83,2.2,4.55,2.84.7.26,1.09.92,1.53,1.49.16.21.18.45-.04.65-.35.29-.75.59-1.2.45-1.14-.36-2.28-.56-3.17-1.67-.72-.89-2-1.34-3.05-1.97-.23-.14-.55-.18-.73-.35-1.22-1.16-2.85-1.65-4.15-2.73-.98-.82-2.04-1.72-3.35-2.09-.1-.03-.21-.07-.27-.15-.96-1.23-2.36-1.87-3.68-2.51-1.86-.89-3.16-2.47-4.69-3.69-1.31-1.05-3.12-1.62-3.95-3.29-.19-.38-.65-.62-1.09-.74-.59-.16-1.05-.48-1.41-.96-.32-.43-.78-.68-1.25-.88-.29-.12-.59-.21-.78-.46-1.35-1.8-3.47-2.56-5.13-3.9-1.97-1.58-4.32-2.49-6.31-4.05-1.7-1.33-3.7-2.37-5.84-3.03-.97-.3-1.85-.9-2.69-1.42-2.17-1.34-4.61-2.04-6.84-3.18-1.93-1-3.97-1.75-5.84-2.91-.91-.56-2.01-.98-3.03-1.42-1.18-.5-2.33-1.17-3.32-1.98-1-.8-2.2-.88-3.28-1.38-.34-.15-.67.08-.98.22-.85.38-1.69.77-2.53,1.16-.61.28-1.35.46-1.33,1.36.02.82.71,1.26,1.26,1.48,3.1,1.28,5.9,3.13,8.92,4.55.59.27,1.23.35,1.84.59,2.85,1.15,5.41,2.87,8.31,3.93,1.89.7,3.57,1.97,5.4,2.86,1.34.64,2.51,1.62,3.97,2.04.21.06.43.23.57.42.49.65,1.1,1.05,1.9,1.31.97.31,1.75,1.08,2.52,1.68,1.12.86,2.36,1.49,3.46,2.33.59.45,1.09,1.04,1.88,1.16.03,0,.08.02.09.05.95,1.45,2.39,2.34,3.78,3.29.05.04.07.13.12.16,1.68.86,2.73,2.57,4.48,3.32.07.02.16.02.19.07.96,1.46,2.89,1.77,3.85,3.25.3.46.72.8,1.33.88.29.04.6.2.82.39,1.45,1.19,3.1,2.07,4.63,3.12,1.36.93,2.96,1.49,4.09,2.85.66.81,1.87,1.19,2.87,1.69.49.24,1.21.28.95,1.04-.22.68-1,.87-1.54.7-1.19-.38-2.4-.8-3.39-1.63-.11-.08-.16-.27-.27-.3-1.6-.41-2.64-1.72-4.01-2.5-1.29-.73-2.71-1.26-3.76-2.52-.98-1.18-2.58-1.69-3.87-2.55-.45-.3-.97-.49-1.3-.97-.33-.49-.8-.82-1.36-1.04-.58-.23-1.1-.56-1.45-1.1-.17-.27-.39-.48-.69-.6-1.2-.48-2.07-1.31-2.68-2.44-.1-.17-.25-.39-.42-.43-1.2-.3-1.86-1.36-2.82-1.94-1.74-1.06-3.21-2.51-4.98-3.47-1.09-.59-1.91-1.39-2.8-2.18-.62-.55-1.49-.77-2.22-1.21-1.22-.73-2.38-1.61-3.75-2.07-.93-.32-1.49-1.13-2.4-1.54-2.76-1.24-5.42-2.72-8.16-4.01-1.13-.53-2.35-.96-3.44-1.52-1.9-.98-4.03-1.41-5.8-2.74-.94-.71-2.09-1.23-3.26-1.65-1.3-.47-2.43-1.39-3.68-1.94-1.34-.59-2.17-1.5-2.75-2.57l36.34-18.78c.06-.01.12-.04.18-.07,1.06-.49,2.15-.94,3.12-1.56.12-.08.23-.16.34-.25l4.28-2.21h0c.53.18.97-.2,1.43-.5.49-.31.99-.63,1.51-.87.48-.22.88-.48,1.22-.77h.01s4.38-2.27,4.38-2.27c.34.15.67-.07,1-.25.99-.54,1.98-1.1,2.96-1.66.17-.1.34-.23.49-.39l4.1-2.12h0c.34.05.67-.1.98-.42.08-.08.17-.15.25-.22h0s9.87-5.11,9.87-5.11l.06-.03,14.31-7.4c.33,0,.64-.22.95-.37.62-.29,1.21-.65,1.86-.9.62-.24,1.1-.56,1.49-.96l5.02-2.59L139.46,0s.02.01.03.02c.44.27,1,.45,1.02,1.05.01.59-.34,1-.84,1.33-1.13.73-2.34,1.31-3.55,1.88-4.37,2.09-8.47,4.7-12.75,6.95-6.05,3.17-12.14,6.26-18.2,9.4-4.72,2.44-9.42,4.95-14.01,7.65-2.16,1.27-4.44,2.32-6.64,3.53-6.42,3.52-13.01,6.69-19.6,9.86-1.37.66-1.51,1.71-.17,2.5,1.43.84,3.01,1.43,4.53,2.1.44.2.88-.04,1.27-.24,6.03-3.15,12.23-5.94,18.19-9.22.87-.48,1.78-.89,2.65-1.39,3.75-2.14,7.47-4.34,11.25-6.41,3.1-1.69,6.27-3.28,9.45-4.82,4.51-2.18,9.02-4.4,13.63-6.37,5.49-2.35,10.91-4.86,16.29-7.47.56-.28,1.19-.68,1.73.09.6.86.5,1.39-.44,1.93-3,1.75-6.2,3.11-9.33,4.6-2.67,1.26-5.36,2.48-8.08,3.63-2.55,1.08-5.22,1.82-7.74,3-5.55,2.59-10.6,6.08-16.13,8.67-1.71.8-3.33,1.79-5.01,2.65-4.81,2.44-9.65,4.82-14.45,7.28-2.19,1.13-4.32,2.38-6.47,3.61-.6.34-1.19.68-1.85.88-.62.18-.94.63-.83,1.24.11.63.29,1.22,1.15,1.36,1.17.18,2.26.64,3.31,1.24,1.18.69,2.43,1.03,3.88.33,3.06-1.49,5.83-3.49,8.81-5.12,2.89-1.59,5.77-3.19,8.71-4.68,5.43-2.74,10.84-5.52,16.35-8.07,9.61-4.43,19.18-8.95,28.68-13.6.06-.03.12-.06.18-.08.67-.25,1.5-.74,1.99-.05.47.66-.11,1.45-.56,2.03-.48.63-1.19,1.03-1.89,1.39-5.39,2.74-10.83,5.39-16.38,7.8-2.66,1.16-5.43,2.11-8.18,3.07-2.84,1-5.38,2.59-8.02,3.97-1.4.73-2.77,1.51-4.14,2.3-5.9,3.44-11.98,6.55-18.13,9.52-1.27.61-2.5,1.28-3.76,1.92-.62.32-1.38.6-1.3,1.41.08.85.82,1.41,1.54,1.65.74.25,1.33.65,1.99,1.02,1.14.64,2.22.89,3.56.15,4.17-2.3,8.51-4.33,12.65-6.7,3.88-2.22,7.84-4.29,11.92-6.08,3.05-1.33,6.23-2.34,9.25-3.77,5.96-2.83,11.93-5.63,17.79-8.65.98-.5,1.89-1.13,2.83-1.69.26-.16.54-.3.81-.44.52-.26.99-.27,1.34.29.32.54.16,1.03-.24,1.4-.38.35-.82.63-1.28.86-5.97,3.04-11.94,6.07-18.02,8.89-1.96.91-3.9,1.87-5.85,2.8-7.43,3.26-14.73,6.78-21.98,10.4-2.34,1.17-4.61,2.45-6.9,3.71-1.01.56-.97.84-.27,1.74,1.08,1.38,2.71,1.8,4.15,2.53.48.24.92-.16,1.34-.36,4.62-2.21,9.06-4.76,13.76-6.81,9.92-4.33,19.62-9.14,29.33-13.9,1.24-.61,2.44-1.27,3.5-2.15.5-.43,1.09-.71,1.68-1,.56-.28.96-.16,1.31.37.37.55.34,1.02-.13,1.47-.2.18-.44.32-.67.46-3.61,2.12-7.3,4.11-10.94,6.18-3.17,1.81-6.44,3.44-9.79,4.82-3.96,1.64-7.86,3.42-11.87,4.96-3.53,1.35-6.88,3.15-10.22,4.9-1.28.67-2.53,1.37-3.78,2.1-.86.51-.88.88-.18,1.6,1.19,1.2,2.65,1.91,4.23,2.39.49.15.94.02,1.39-.19,11.62-5.49,23.26-10.92,34.75-16.67,1.79-.9,3.34-2.15,5.01-3.24.76-.5,1.33-.46,1.8.27.47.73.22,1.34-.47,1.73-1.13.66-2.31,1.21-3.44,1.87-2.95,1.75-5.78,3.69-8.81,5.28-4.89,2.58-9.89,4.94-14.94,7.19-2.67,1.19-5.41,2.2-8.1,3.32-1.11.46-2.32.6-3.38,1.2-.54.3-1.24.48-1.17,1.26.09.87.36,1.75,1.31,2.04.7.21,1.21.59,1.63,1.16.6.78,1.33.97,2.26.52,2.31-1.14,4.65-2.22,6.97-3.34,6.4-3.1,12.8-6.21,19.18-9.34,1.88-.92,3.62-2.1,5.25-3.41.47-.38.95-.36,1.31-.06.41.33.72.84.41,1.45-.29.55-.77.88-1.3,1.13-4.61,2.16-8.8,5.06-13.25,7.51-4.71,2.6-9.57,4.95-14.61,6.88-1.68.64-1.83,1.63-.67,2.98.88,1.03,2.23.97,3.19,1.74.28.23.73-.07,1.06-.24,5.2-2.66,10.56-4.99,15.66-7.84,1.51-.85,3.08-1.65,4.32-2.94.47-.49,1.11-.76,1.76-.29.44.32.38,1.63-.04,2.08Z"/>
      <path class="cls-1" d="m8.02,84.84c-.13-.4-.54-.81-.11-1.22.42-.39.79.03,1.2.17,1.86.64,3.41,1.91,5.21,2.6,2.78,1.06,5.14,2.94,7.94,3.93.28.1.58.27.78.49,1.21,1.37,2.95,1.91,4.38,2.91,1.19.83,2.51,1.48,3.58,2.48.48.45.92.93,1.59,1.08.03,0,.07.02.09.04,1.23,1.44,3.08,2.11,4.31,3.55.2.24.37.48.7.56.77.19,1.33.69,1.83,1.27.43.5.89.95,1.55,1.13.45.13.73.46,1.01.83.54.7,1.05,1.44,2.01,1.66.41.1.72.39.94.76.25.43.64.75,1.07.94,2.1.97,3.87,2.49,5.91,3.56.31.16.56.47.37.85-.18.35-.52.38-.89.27-1.2-.35-2.52-.38-3.59-1.07-1.29-.83-2.98-1.08-3.79-2.61-.09-.17-.27-.38-.44-.41-1.19-.19-1.69-1.48-2.6-1.81-1.73-.63-2.38-2.59-4.18-3-.37-.08-.56-.49-.8-.78-.41-.51-.88-.96-1.53-1.15-.13-.04-.26-.1-.36-.19-1.04-1.01-2.15-1.9-3.34-2.75-1.37-.98-2.86-1.78-4.17-2.86-1.33-1.1-2.8-2.07-4.31-2.9-1.91-1.04-3.82-2.09-5.72-3.14-2.45-1.35-4.97-2.55-7.48-3.76-.57-.28-.84-.89-1.15-1.43Z"/>
    </g>
  </g>
</svg>