<?xml version="1.0" encoding="UTF-8"?>
<svg id="Camada_2" data-name="Camada 2" xmlns="http://www.w3.org/2000/svg" viewBox="0 0 199.82 199.81">
  <defs>
    <style>
      .cls-1 {
        fill: #f4f4f4;
      }
    </style>
  </defs>
  <g id="Camada_1-2" data-name="Camada 1">
    <g>
      <g>
        <g>
          <g>
            <path class="cls-1" d="m9.54,140.65c10.49,23.24,29.22,41.34,52.75,50.97,1.56.63,3.16,1.25,4.77,1.81s3.24,1.09,4.85,1.57c11.98,3.53,24.31,4.77,36.67,3.68,1.1-.1,2.25-.22,3.39-.36,18.06-2.23,35.16-9.38,49.46-20.68,14.7-11.61,25.77-27.14,32-44.89,4.44-12.63,6.27-25.75,5.44-38.99-.8-12.8-4.03-25.16-9.6-36.77-5.58-11.61-13.2-21.86-22.69-30.48-9.81-8.93-21.2-15.7-33.82-20.14C114.87.09,95.71-.95,77.34,3.36c-17.89,4.2-34.23,13.24-47.26,26.14-.62.61-1.26,1.26-1.94,1.97l-.1.11c-9.69,10.17-16.98,22.1-21.67,35.46-8.48,24.15-7.36,50.29,3.16,73.6ZM29.12,32.42h0s.08-.1.08-.1c.27-.29.54-.55.8-.82.17-.18.35-.36.52-.53s.34-.34.51-.51c0,0,.01,0,.01-.01,12.85-12.72,28.97-21.63,46.6-25.78,18.13-4.25,37.03-3.23,54.67,2.97,12.45,4.37,23.68,11.06,33.36,19.86,9.36,8.5,16.88,18.63,22.38,30.08,5.5,11.45,8.69,23.65,9.47,36.27.82,13.06-.99,26-5.36,38.45-6.15,17.51-17.07,32.83-31.57,44.27-14.1,11.15-30.98,18.2-48.79,20.4h-.01c-.25.03-.49.06-.74.09-.25.03-.5.06-.75.08-.63.07-1.24.13-1.85.18,0,0-.02,0-.03,0-.26.03-.51.05-.77.06-.26.03-.52.05-.77.06-11.66.85-23.3-.41-34.6-3.74-1.6-.47-3.2-.99-4.79-1.55s-3.17-1.16-4.71-1.79c-23.21-9.5-41.69-27.35-52.02-50.28C.39,117.1-.71,91.31,7.65,67.5c4.48-12.74,11.35-24.16,20.43-33.97.17-.19.34-.37.52-.56.18-.18.34-.37.52-.55Z"/>
            <path class="cls-1" d="m10.32,140.3c10.39,23.04,28.96,40.99,52.3,50.53,1.54.63,3.13,1.24,4.73,1.8s3.22,1.09,4.81,1.56c11.55,3.41,23.45,4.66,35.37,3.72.26-.01.52-.03.77-.06.07,0,.14,0,.21-.01,1.03-.09,2.1-.2,3.17-.34.07,0,.13-.01.2-.02.18-.02.35-.04.53-.07,17.7-2.28,34.46-9.34,48.5-20.42,14.57-11.51,25.54-26.9,31.72-44.51,4.4-12.51,6.21-25.52,5.4-38.65-.8-12.68-4-24.95-9.53-36.45-5.52-11.51-13.09-21.68-22.49-30.22-9.74-8.86-21.02-15.57-33.54-19.97C114.75.95,95.75-.09,77.53,4.19c-17.56,4.12-33.62,12.95-46.46,25.54-.13.12-.26.25-.38.37-.04.04-.09.09-.13.14-.54.54-1.11,1.11-1.71,1.73l-.08.09c-.04.05-.09.09-.14.15-.17.18-.35.37-.52.56-9.33,9.95-16.36,21.57-20.92,34.56C-1.22,91.27-.11,117.18,10.32,140.3ZM29.49,32.75l.08-.08c.14-.14.28-.29.42-.44.17-.18.34-.35.51-.52h0c.18-.18.35-.36.52-.53.12-.13.25-.24.36-.36,12.79-12.67,28.82-21.53,46.38-25.66,18.03-4.24,36.83-3.21,54.39,2.95,12.39,4.35,23.56,11,33.19,19.76,9.31,8.46,16.8,18.53,22.27,29.92,5.47,11.39,8.64,23.53,9.43,36.09.8,12.99-.99,25.86-5.34,38.26-6.12,17.43-16.98,32.66-31.4,44.05-14.04,11.08-30.83,18.1-48.55,20.29-.19.03-.38.04-.56.06-.25.04-.5.06-.74.09-.26.03-.5.06-.76.08-.43.04-.85.08-1.26.12-.2.02-.41.03-.61.05-.26.03-.52.05-.77.06-.26.03-.52.05-.77.06-11.41.76-22.78-.51-33.83-3.77-1.58-.47-3.19-.98-4.77-1.54s-3.16-1.16-4.68-1.78c-23.09-9.45-41.47-27.22-51.76-50.02C.91,117.01-.2,91.36,8.13,67.66c4.39-12.48,11.08-23.71,19.93-33.37.17-.19.34-.38.51-.57.17-.18.35-.37.52-.55.13-.14.26-.28.39-.42Zm-19.17,107.55c10.39,23.04,28.96,40.99,52.3,50.53,1.54.63,3.13,1.24,4.73,1.8s3.22,1.09,4.81,1.56c11.55,3.41,23.45,4.66,35.37,3.72.26-.01.52-.03.77-.06.07,0,.14,0,.21-.01,1.03-.09,2.1-.2,3.17-.34.07,0,.13-.01.2-.02.18-.02.35-.04.53-.07,17.7-2.28,34.46-9.34,48.5-20.42,14.57-11.51,25.54-26.9,31.72-44.51,4.4-12.51,6.21-25.52,5.4-38.65-.8-12.68-4-24.95-9.53-36.45-5.52-11.51-13.09-21.68-22.49-30.22-9.74-8.86-21.02-15.57-33.54-19.97C114.75.95,95.75-.09,77.53,4.19c-17.56,4.12-33.62,12.95-46.46,25.54-.13.12-.26.25-.38.37-.04.04-.09.09-.13.14-.54.54-1.11,1.11-1.71,1.73l-.08.09c-.04.05-.09.09-.14.15-.17.18-.35.37-.52.56-9.33,9.95-16.36,21.57-20.92,34.56C-1.22,91.27-.11,117.18,10.32,140.3ZM29.49,32.75l.08-.08c.14-.14.28-.29.42-.44.17-.18.34-.35.51-.52h0c.18-.18.35-.36.52-.53.12-.13.25-.24.36-.36,12.79-12.67,28.82-21.53,46.38-25.66,18.03-4.24,36.83-3.21,54.39,2.95,12.39,4.35,23.56,11,33.19,19.76,9.31,8.46,16.8,18.53,22.27,29.92,5.47,11.39,8.64,23.53,9.43,36.09.8,12.99-.99,25.86-5.34,38.26-6.12,17.43-16.98,32.66-31.4,44.05-14.04,11.08-30.83,18.1-48.55,20.29-.19.03-.38.04-.56.06-.25.04-.5.06-.74.09-.26.03-.5.06-.76.08-.43.04-.85.08-1.26.12-.2.02-.41.03-.61.05-.26.03-.52.05-.77.06-.26.03-.52.05-.77.06-11.41.76-22.78-.51-33.83-3.77-1.58-.47-3.19-.98-4.77-1.54s-3.16-1.16-4.68-1.78c-23.09-9.45-41.47-27.22-51.76-50.02C.91,117.01-.2,91.36,8.13,67.66c4.39-12.48,11.08-23.71,19.93-33.37.17-.19.34-.38.51-.57.17-.18.35-.37.52-.55.13-.14.26-.28.39-.42Zm-20.4,108.11c10.54,23.36,29.36,41.55,53.02,51.23,1.56.64,3.17,1.25,4.79,1.82s3.26,1.1,4.88,1.58c12.03,3.55,24.43,4.79,36.85,3.7,1.1-.1,2.25-.22,3.41-.36,18.15-2.25,35.33-9.43,49.71-20.78,14.77-11.67,25.89-27.27,32.16-45.12,4.46-12.69,6.29-25.87,5.46-39.18-.8-12.86-4.05-25.3-9.65-36.96-5.6-11.66-13.28-21.97-22.8-30.64-9.87-8.97-21.31-15.78-34-20.24C114.95-.42,95.69-1.46,77.23,2.87c-17.98,4.22-34.4,13.31-47.49,26.27-.64.63-1.27,1.28-1.95,1.99l-.1.1c-9.73,10.23-17.06,22.22-21.78,35.64-8.52,24.27-7.39,50.54,3.18,73.97ZM28.13,32.22c.1-.1.19-.2.28-.3l.1-.11c.67-.7,1.3-1.34,1.93-1.96.21-.21.43-.42.64-.63,12.85-12.51,28.86-21.27,46.36-25.38,18.28-4.29,37.35-3.26,55.15,2.99,12.56,4.41,23.89,11.15,33.66,20.04,9.43,8.58,17.03,18.79,22.58,30.33,5.54,11.55,8.75,23.86,9.55,36.59.82,13.18-1,26.23-5.41,38.79-6.21,17.67-17.21,33.11-31.84,44.66-13.99,11.05-30.66,18.11-48.28,20.46-.31.04-.62.08-.93.12-1.14.14-2.28.26-3.38.36-.19.02-.38.04-.57.05-12.11,1.01-24.19-.24-35.92-3.71-1.6-.47-3.23-1-4.83-1.56s-3.2-1.17-4.74-1.8c-23.41-9.58-42.05-27.59-52.49-50.71C-.47,117.24-1.59,91.24,6.85,67.21c4.62-13.16,11.78-24.93,21.28-34.99Zm-17.81,108.07c10.39,23.04,28.96,40.99,52.3,50.53,1.54.63,3.13,1.24,4.73,1.8s3.22,1.09,4.81,1.56c11.55,3.41,23.45,4.66,35.37,3.72.26-.01.52-.03.77-.06.07,0,.14,0,.21-.01,1.03-.09,2.1-.2,3.17-.34.07,0,.13-.01.2-.02.18-.02.35-.04.53-.07,17.7-2.28,34.46-9.34,48.5-20.42,14.57-11.51,25.54-26.9,31.72-44.51,4.4-12.51,6.21-25.52,5.4-38.65-.8-12.68-4-24.95-9.53-36.45-5.52-11.51-13.09-21.68-22.49-30.22-9.74-8.86-21.02-15.57-33.54-19.97C114.75.95,95.75-.09,77.53,4.19c-17.56,4.12-33.62,12.95-46.46,25.54-.13.12-.26.25-.38.37-.04.04-.09.09-.13.14-.54.54-1.11,1.11-1.71,1.73l-.08.09c-.04.05-.09.09-.14.15-.17.18-.35.37-.52.56-9.33,9.95-16.36,21.57-20.92,34.56C-1.22,91.27-.11,117.18,10.32,140.3ZM29.49,32.75l.08-.08c.14-.14.28-.29.42-.44.17-.18.34-.35.51-.52h0c.18-.18.35-.36.52-.53.12-.13.25-.24.36-.36,12.79-12.67,28.82-21.53,46.38-25.66,18.03-4.24,36.83-3.21,54.39,2.95,12.39,4.35,23.56,11,33.19,19.76,9.31,8.46,16.8,18.53,22.27,29.92,5.47,11.39,8.64,23.53,9.43,36.09.8,12.99-.99,25.86-5.34,38.26-6.12,17.43-16.98,32.66-31.4,44.05-14.04,11.08-30.83,18.1-48.55,20.29-.19.03-.38.04-.56.06-.25.04-.5.06-.74.09-.26.03-.5.06-.76.08-.43.04-.85.08-1.26.12-.2.02-.41.03-.61.05-.26.03-.52.05-.77.06-.26.03-.52.05-.77.06-11.41.76-22.78-.51-33.83-3.77-1.58-.47-3.19-.98-4.77-1.54s-3.16-1.16-4.68-1.78c-23.09-9.45-41.47-27.22-51.76-50.02C.91,117.01-.2,91.36,8.13,67.66c4.39-12.48,11.08-23.71,19.93-33.37.17-.19.34-.38.51-.57.17-.18.35-.37.52-.55.13-.14.26-.28.39-.42Z"/>
          </g>
          <g>
            <path class="cls-1" d="m10.54,140.2c10.37,22.98,28.89,40.88,52.16,50.4,1.53.63,3.12,1.23,4.71,1.79s3.21,1.09,4.8,1.55c11.42,3.38,23.2,4.63,34.99,3.74.26-.02.52-.04.77-.06.17-.02.34-.02.51-.04.94-.08,1.9-.18,2.88-.3.16-.01.32-.03.48-.05.09-.01.18-.02.27-.03,17.76-2.24,34.58-9.3,48.65-20.41,14.54-11.49,25.47-26.83,31.64-44.39,4.39-12.48,6.2-25.46,5.38-38.56-.79-12.65-3.99-24.89-9.5-36.36-5.5-11.48-13.05-21.62-22.43-30.15-9.71-8.82-20.97-15.53-33.45-19.91C114.72,1.2,95.76.17,77.59,4.43c-17.6,4.13-33.68,13-46.54,25.66-.06.06-.13.13-.2.19-.11.11-.21.21-.32.32-.48.48-.98.99-1.51,1.55l-.08.09c-.11.12-.23.23-.34.36-.17.18-.35.37-.52.56-9.21,9.88-16.16,21.41-20.67,34.26C-.97,91.29.14,117.14,10.54,140.2ZM29.11,32.8c.07-.07.14-.15.2-.22l.08-.08c.21-.21.41-.43.6-.63.18-.17.35-.35.52-.52.17-.18.34-.35.52-.53.06-.05.13-.12.18-.17,12.82-12.69,28.89-21.59,46.49-25.72,18.07-4.25,36.93-3.22,54.53,2.96,12.42,4.36,23.62,11.02,33.28,19.81,9.33,8.49,16.84,18.58,22.32,30,5.48,11.42,8.67,23.59,9.45,36.18.82,13.03-.98,25.93-5.34,38.36-6.14,17.47-17.02,32.74-31.48,44.16-14.08,11.12-30.9,18.16-48.67,20.35-.1,0-.19.03-.28.04-.25.03-.5.06-.74.09-.26.03-.5.06-.75.08-.53.06-1.05.11-1.56.15-.1,0-.21.02-.31.03-.25.02-.52.05-.77.06-.26.03-.52.05-.77.06-11.54.8-23.04-.46-34.22-3.76-1.58-.47-3.19-.99-4.78-1.54s-3.17-1.16-4.69-1.78c-23.15-9.48-41.59-27.28-51.9-50.15C.65,117.05-.46,91.33,7.89,67.58c4.43-12.6,11.21-23.92,20.18-33.67.18-.19.34-.38.52-.56.18-.18.35-.37.52-.55Zm-18.56,107.4c10.37,22.98,28.89,40.88,52.16,50.4,1.53.63,3.12,1.23,4.71,1.79s3.21,1.09,4.8,1.55c11.42,3.38,23.2,4.63,34.99,3.74.26-.02.52-.04.77-.06.17-.02.34-.02.51-.04.94-.08,1.9-.18,2.88-.3.16-.01.32-.03.48-.05.09-.01.18-.02.27-.03,17.76-2.24,34.58-9.3,48.65-20.41,14.54-11.49,25.47-26.83,31.64-44.39,4.39-12.48,6.2-25.46,5.38-38.56-.79-12.65-3.99-24.89-9.5-36.36-5.5-11.48-13.05-21.62-22.43-30.15-9.71-8.82-20.97-15.53-33.45-19.91C114.72,1.2,95.76.17,77.59,4.43c-17.6,4.13-33.68,13-46.54,25.66-.06.06-.13.13-.2.19-.11.11-.21.21-.32.32-.48.48-.98.99-1.51,1.55l-.08.09c-.11.12-.23.23-.34.36-.17.18-.35.37-.52.56-9.21,9.88-16.16,21.41-20.67,34.26C-.97,91.29.14,117.14,10.54,140.2ZM29.11,32.8c.07-.07.14-.15.2-.22l.08-.08c.21-.21.41-.43.6-.63.18-.17.35-.35.52-.52.17-.18.34-.35.52-.53.06-.05.13-.12.18-.17,12.82-12.69,28.89-21.59,46.49-25.72,18.07-4.25,36.93-3.22,54.53,2.96,12.42,4.36,23.62,11.02,33.28,19.81,9.33,8.49,16.84,18.58,22.32,30,5.48,11.42,8.67,23.59,9.45,36.18.82,13.03-.98,25.93-5.34,38.36-6.14,17.47-17.02,32.74-31.48,44.16-14.08,11.12-30.9,18.16-48.67,20.35-.1,0-.19.03-.28.04-.25.03-.5.06-.74.09-.26.03-.5.06-.75.08-.53.06-1.05.11-1.56.15-.1,0-.21.02-.31.03-.25.02-.52.05-.77.06-.26.03-.52.05-.77.06-11.54.8-23.04-.46-34.22-3.76-1.58-.47-3.19-.99-4.78-1.54s-3.17-1.16-4.69-1.78c-23.15-9.48-41.59-27.28-51.9-50.15C.65,117.05-.46,91.33,7.89,67.58c4.43-12.6,11.21-23.92,20.18-33.67.18-.19.34-.38.52-.56.18-.18.35-.37.52-.55Zm-19.79,107.96c10.51,23.3,29.29,41.44,52.88,51.1,1.56.64,3.17,1.25,4.78,1.82s3.25,1.1,4.87,1.57c12,3.54,24.37,4.78,36.77,3.68,1.1-.1,2.24-.22,3.4-.35,18.1-2.24,35.25-9.41,49.59-20.74,14.73-11.64,25.83-27.2,32.08-45,4.45-12.66,6.28-25.81,5.45-39.08-.8-12.82-4.04-25.23-9.62-36.87-5.59-11.63-13.24-21.92-22.75-30.56-9.84-8.95-21.25-15.75-33.91-20.19C114.91-.17,95.7-1.21,77.28,3.12c-17.93,4.21-34.31,13.27-47.37,26.2-.63.62-1.27,1.27-1.94,1.98l-.11.11c-9.71,10.2-17.02,22.17-21.72,35.55-8.5,24.21-7.37,50.41,3.17,73.79ZM28.16,31.83s.04-.05.07-.08l.1-.1c.67-.7,1.3-1.35,1.94-1.97.27-.28.55-.54.83-.81,12.85-12.43,28.83-21.17,46.29-25.27,18.33-4.3,37.44-3.26,55.29,3.01,12.6,4.42,23.94,11.18,33.74,20.08,9.46,8.61,17.07,18.84,22.64,30.41,5.55,11.58,8.78,23.92,9.58,36.68.82,13.21-1.01,26.3-5.43,38.89-6.22,17.71-17.26,33.19-31.91,44.78-13.95,11.01-30.56,18.08-48.14,20.47-.4.06-.8.11-1.21.16-1.15.14-2.29.26-3.38.35-.1,0-.18.02-.28.02-12.24,1.05-24.45-.18-36.3-3.69-1.61-.47-3.24-.99-4.85-1.56s-3.2-1.18-4.76-1.81c-23.47-9.6-42.16-27.66-52.61-50.84C-.72,117.29-1.84,91.22,6.62,67.13c4.67-13.29,11.91-25.16,21.54-35.3Zm-17.61,108.37c10.37,22.98,28.89,40.88,52.16,50.4,1.53.63,3.12,1.23,4.71,1.79s3.21,1.09,4.8,1.55c11.42,3.38,23.2,4.63,34.99,3.74.26-.02.52-.04.77-.06.17-.02.34-.02.51-.04.94-.08,1.9-.18,2.88-.3.16-.01.32-.03.48-.05.09-.01.18-.02.27-.03,17.76-2.24,34.58-9.3,48.65-20.41,14.54-11.49,25.47-26.83,31.64-44.39,4.39-12.48,6.2-25.46,5.38-38.56-.79-12.65-3.99-24.89-9.5-36.36-5.5-11.48-13.05-21.62-22.43-30.15-9.71-8.82-20.97-15.53-33.45-19.91C114.72,1.2,95.76.17,77.59,4.43c-17.6,4.13-33.68,13-46.54,25.66-.06.06-.13.13-.2.19-.11.11-.21.21-.32.32-.48.48-.98.99-1.51,1.55l-.08.09c-.11.12-.23.23-.34.36-.17.18-.35.37-.52.56-9.21,9.88-16.16,21.41-20.67,34.26C-.97,91.29.14,117.14,10.54,140.2ZM29.11,32.8c.07-.07.14-.15.2-.22l.08-.08c.21-.21.41-.43.6-.63.18-.17.35-.35.52-.52.17-.18.34-.35.52-.53.06-.05.13-.12.18-.17,12.82-12.69,28.89-21.59,46.49-25.72,18.07-4.25,36.93-3.22,54.53,2.96,12.42,4.36,23.62,11.02,33.28,19.81,9.33,8.49,16.84,18.58,22.32,30,5.48,11.42,8.67,23.59,9.45,36.18.82,13.03-.98,25.93-5.34,38.36-6.14,17.47-17.02,32.74-31.48,44.16-14.08,11.12-30.9,18.16-48.67,20.35-.1,0-.19.03-.28.04-.25.03-.5.06-.74.09-.26.03-.5.06-.75.08-.53.06-1.05.11-1.56.15-.1,0-.21.02-.31.03-.25.02-.52.05-.77.06-.26.03-.52.05-.77.06-11.54.8-23.04-.46-34.22-3.76-1.58-.47-3.19-.99-4.78-1.54s-3.17-1.16-4.69-1.78c-23.15-9.48-41.59-27.28-51.9-50.15C.65,117.05-.46,91.33,7.89,67.58c4.43-12.6,11.21-23.92,20.18-33.67.18-.19.34-.38.52-.56.18-.18.35-.37.52-.55Z"/>
            <path class="cls-1" d="m8.86,140.96c10.56,23.41,29.43,41.65,53.14,51.35,1.57.64,3.18,1.25,4.81,1.82s3.26,1.1,4.89,1.58c12.06,3.56,24.5,4.81,36.95,3.71,1.1-.1,2.25-.22,3.42-.36,18.19-2.24,35.42-9.45,49.83-20.83,14.81-11.7,25.96-27.34,32.24-45.23,4.47-12.72,6.31-25.93,5.48-39.28-.81-12.89-4.06-25.35-9.68-37.05-5.61-11.69-13.31-22.03-22.86-30.72-9.9-9-21.37-15.82-34.08-20.29C114.99-.66,95.68-1.71,77.17,2.63c-18.02,4.23-34.48,13.34-47.61,26.33-.64.63-1.27,1.29-1.96,2l-.1.1c-9.76,10.26-17.1,22.28-21.83,35.74-8.55,24.33-7.41,50.67,3.18,74.16ZM132.07,8.35c12.36,4.34,23.5,10.97,33.11,19.71,9.28,8.44,16.75,18.49,22.21,29.84,5.46,11.36,8.62,23.47,9.4,35.99.81,12.96-.99,25.81-5.33,38.16-6.11,17.38-16.94,32.58-31.32,43.94-14,11.06-30.74,18.06-48.42,20.25-.28.04-.56.07-.83.1-.26.03-.5.06-.75.08-.26.03-.5.05-.75.07-.33.04-.66.07-.98.1-.3.02-.59.05-.9.07-.25.02-.51.04-.77.06-.25.02-.51.04-.77.05-11.28.71-22.52-.56-33.45-3.78-1.57-.47-3.17-.99-4.75-1.54s-3.15-1.15-4.67-1.77c-23.03-9.43-41.37-27.15-51.63-49.89C1.16,116.97.06,91.38,8.36,67.74c4.34-12.36,10.96-23.47,19.68-33.07.17-.19.34-.38.52-.56.17-.19.34-.37.52-.56.19-.21.39-.42.59-.63l.08-.09c.07-.08.15-.15.22-.23.17-.18.35-.36.52-.53.17-.18.34-.35.52-.52.19-.2.37-.39.55-.57,12.75-12.63,28.75-21.47,46.26-25.59,17.98-4.22,36.74-3.2,54.25,2.95Z"/>
            <path class="cls-1" d="m8.36,67.74c4.34-12.36,10.96-23.47,19.68-33.07-.21,6.42-.15,12.38.17,18.15.55,9.76,2.21,20.3,5.07,32.2,2.77,11.48,5.89,21.29,9.55,29.98,8.38,19.89,19.46,37.85,32.95,53.39,10.06,11.59,19.96,20.89,30.18,28.39-11.28.71-22.52-.56-33.45-3.78-1.57-.47-3.17-.99-4.75-1.54s-3.15-1.15-4.67-1.77c-23.03-9.43-41.37-27.15-51.63-49.89C1.16,116.97.06,91.38,8.36,67.74Z"/>
          </g>
        </g>
        <g>
          <path class="cls-1" d="m30.56,29.98c-.25,6.76-.38,13.53-.07,20.27.73,15.72,3.63,31.1,8.3,46.19,4.87,15.72,11.52,30.6,20.1,44.59,12.19,19.9,27.29,37.32,45.9,51.47,2.32,1.77,4.7,3.48,7.1,5.14-1.12.14-2.24.26-3.37.36-12.07-8.49-22.66-18.76-32.37-29.94-13.87-15.97-24.69-33.82-32.87-53.25-4.06-9.65-7.05-19.66-9.52-29.91-2.55-10.62-4.45-21.3-5.05-32.11-.39-6.92-.37-13.9-.08-20.85h0c.63-.66,1.27-1.32,1.92-1.96Z"/>
          <path class="cls-1" d="m28.14,31.92c0,.1-.01.2-.01.3,0,.18-.02.37-.02.54,0,.13-.01.26-.02.38,0,.13-.01.25-.01.38,0,.13-.01.26-.02.38,0,.13,0,.25,0,.38,0,.12-.01.26-.02.38-.21,6.42-.15,12.38.17,18.15.55,9.76,2.21,20.3,5.07,32.2,2.77,11.48,5.89,21.29,9.55,29.98,8.38,19.89,19.46,37.85,32.95,53.39,10.06,11.59,19.96,20.89,30.18,28.39.1.08.21.15.31.23.11.08.21.15.32.23.1.08.21.15.31.22.1.08.21.16.31.23.11.08.21.15.32.22.15.11.29.22.44.33.09.06.18.12.26.19l.05.03.1.07h.18c1.09-.11,2.23-.23,3.39-.37l1.3-.16-.1-.07-.31-.21-.43-.31-.23-.16s-.05-.03-.07-.05c-.1-.07-.21-.14-.31-.21-.1-.07-.2-.15-.3-.22-.11-.07-.21-.14-.31-.22-.1-.07-.2-.14-.3-.21-2.05-1.44-3.96-2.83-5.79-4.23-17.81-13.54-33.21-30.8-45.78-51.34-8.41-13.73-15.17-28.69-20.05-44.48-4.8-15.5-7.59-31-8.28-46.07-.3-6.58-.17-13.05.02-18.67,0-.13,0-.25.01-.38,0-.13,0-.24.01-.37,0-.12,0-.24.02-.36,0-.13,0-.24,0-.36,0-.03,0-.06,0-.09v-.27s.02-.5.02-.5l.02-.36v-.13s-.89.88-.89.88c-.62.62-1.26,1.26-1.94,1.97l-.07.08-.04.11-.02.14Zm1.84.31c0,.13-.01.25-.01.38-.17,5.38-.26,11.48.02,17.67.7,15.15,3.5,30.74,8.32,46.31,4.91,15.87,11.7,30.9,20.15,44.71,12.65,20.63,28.13,38,46.02,51.61,1.57,1.19,3.18,2.38,4.9,3.59.1.08.2.15.3.22.11.08.21.15.32.22.1.08.2.15.3.22.07.05.14.1.22.15-.64.07-1.26.13-1.87.19-.07-.05-.15-.1-.22-.16-.1-.07-.2-.14-.3-.22-.11-.07-.21-.14-.32-.23-.11-.06-.21-.14-.31-.22-10.5-7.57-20.65-17.04-30.97-28.93-13.43-15.45-24.46-33.32-32.79-53.12-3.63-8.64-6.74-18.39-9.49-29.83-2.85-11.84-4.49-22.32-5.04-32.02-.34-6.08-.39-12.38-.14-19.21,0-.13,0-.26.02-.38,0-.13,0-.25.01-.38,0-.13,0-.25.01-.38h0c0-.09,0-.18,0-.27.3-.32.6-.62.89-.92,0,.09,0,.18,0,.27,0,.12,0,.24-.02.36,0,.13,0,.24-.01.37Z"/>
        </g>
      </g>
      <g>
        <path class="cls-1" d="m190.89,138.23c-.56.62-1.29,1.01-2.03,1.34-3.7,1.68-7.05,3.97-10.44,6.13-3.07,1.96-6.29,3.54-9.49,5.2-.42.22-.87.42-1.22.71-.85.7-.8,1.47.08,2.1,1.29.93,2.89,1.32,4.14,2.34.45.37.98.17,1.46-.09,2.51-1.33,5.02-2.66,7.53-3.99.19-.09.36-.25.56-.33.6-.25,1.26-.59,1.78.02.58.69.01,1.25-.45,1.66-1.23,1.1-2.23,2.49-3.86,3.14-1.36.55-2.14,1.57-2.15,3.07,0,.96-.54,1.53-1.32,1.89-.76.34-1.23-.26-1.81-.64-1.62-1.08-3.1-2.41-5.01-3.01-.2-.06-.41-.17-.55-.32-1.72-1.81-4.18-2.48-6.06-3.95-1.38-1.08-2.72-2.18-4.23-3.02-2.15-1.19-3.97-2.82-5.9-4.28-1.72-1.32-4.03-2.04-5.03-4.26-.17-.4-.61-.78-1.01-.95-1.09-.46-1.84-1.36-2.76-1.95-1.79-1.16-3.39-2.6-5.22-3.72-1.58-.96-3.26-1.88-4.48-3.37-.27-.33-.63-.63-1-.78-2.7-1.12-5.08-2.82-7.56-4.31-4.62-2.78-9.48-5.03-14.36-7.3-2.67-1.24-5.41-2.31-8.07-3.57-1.52-.72-2.95-1.69-4.44-2.51-.91-.5-1.9-.71-2.82-1.18-2.16-1.11-4.13-2.59-6.42-3.46-.59-.22-1.13-.29-1.73.03-1.14.59-2.32,1.14-3.49,1.68-.74.33-1.47.68-1.29,1.65.16.94.65,1.66,1.57,2.06,3.33,1.42,6.74,2.72,9.8,4.64,1.57.98,3.28,1.33,4.87,2.07,2.2,1.03,4.42,2.03,6.56,3.18,1.62.88,3.35,1.53,4.94,2.42,2.45,1.37,4.97,2.61,7.34,4.15,1.62,1.04,3.12,2.32,5.02,3,1.25.45,2.46,1.31,3.43,2.19,1.52,1.38,3.54,2.09,4.82,3.77.24.32.7.48,1.09.67.83.4,1.62.8,2.05,1.69.07.15.19.34.33.38,2.05.6,3.09,2.7,5.07,3.4.16.06.36.13.43.27,1.11,1.98,3.35,2.73,4.77,4.37.61.71,1.65.83,2.26,1.42,2.46,2.4,5.89,3.34,8.34,5.83,1.08,1.11,2.77,1.91,4.34,2.63,1.6.74,2.84,2.24,4.53,2.83,2.15.75,3.3,2.93,5.51,3.54.56.16.84.67.8,1.32-.04.66-.47.91-.99,1.03-.95.21-1.96.23-2.64-.57-1.2-1.44-2.95-2.08-4.46-2.95-1.49-.86-2.74-2.27-4.56-2.56-.14-.03-.3-.19-.39-.32-1.27-1.93-3.44-2.56-5.27-3.7-.18-.11-.39-.18-.56-.31-2.05-1.74-4.68-2.7-6.64-4.47-1.57-1.43-3.43-2.49-4.9-4.04-.32-.34-.74-.6-1.14-.84-.96-.58-1.93-1.1-2.53-2.13-.16-.28-.51-.45-.8-.63-2.15-1.27-4.05-2.84-5.88-4.51-1.55-1.42-3.53-2.22-5.14-3.51-1.64-1.3-3.53-2.2-5.19-3.46-1.08-.82-2.26-1.57-3.44-2.22-2.29-1.29-4.54-2.66-7.05-3.61-1.58-.6-2.94-1.88-4.56-2.57-2.2-.94-4.37-1.95-6.61-2.79-1.26-.48-2.24-1.36-3.52-1.81-3.02-1.06-5.7-2.92-8.7-4.1-1.03-.4-2.11-1-2.92-1.72-1.33-1.17-2.95-1.51-4.46-2.19-.23-.1-.53-.19-.75-.13-1.91.55-3.7,1.44-5.35,2.5-.82.52.21,2.71,1.4,3.07,2.41.74,4.6,1.96,6.76,3.21,2.52,1.46,5.19,2.52,7.92,3.46,1.13.39,2.12,1.1,3.14,1.67,2.79,1.55,5.99,2.27,8.61,4,2.27,1.5,4.75,2.55,7.01,4,1.68,1.07,3.45,2.01,5.11,3.1,1.46.96,2.83,2.04,4.27,3.03,1.79,1.23,3.52,2.53,5.42,3.6.42.24.78.52,1.09.87.77.86,1.98,1.39,2.61,2.19,1.42,1.83,3.89,2.34,5.07,4.36.06.11.13.28.23.3,1.96.58,3.02,2.5,4.88,3.2.2.08.45.13.58.28,1.43,1.68,3.43,2.64,5.18,3.88,2.38,1.7,4.75,3.47,7.47,4.65.35.16.73.33.98.6,1.57,1.76,3.75,2.6,5.69,3.81,1.36.85,2.63,1.84,4.08,2.59.57.29,1.12.59,1.72.8.39.14.74.3.91.67.26.58.71,1.26.23,1.81-.6.66-1.65.73-2.28.33-1.55-.99-3.37-1.41-4.82-2.66-1.55-1.32-3.36-2.33-5.07-3.47-2.59-1.71-5.25-3.3-7.82-5.04-2.85-1.92-5.77-3.75-8.57-5.73-1.6-1.14-3.17-2.47-4.77-3.58-2.09-1.44-3.53-3.52-5.78-4.83-1.52-.9-3.14-2-4.48-3.36-1.12-1.14-2.61-1.89-3.9-2.89-2.92-2.29-6.19-4.08-9.38-5.98-1.14-.67-2.32-1.14-3.28-2.17-.71-.76-1.96-.97-2.96-1.44-2.93-1.39-5.83-2.84-8.72-4.33-2.14-1.11-4.5-1.79-6.69-2.82-1.49-.71-3.09-1.15-4.45-2.24-1.17-.94-2.69-1.42-4.1-2.04-1.62-.7-3.29-1.31-4.67-2.51-1.99-1.73-3.8-1.82-6.01-.53-.66.39-1.37.75-2.11.98-.74.22-1.33.56-1.31,1.35,0,.82.49,1.47,1.24,1.83,3.29,1.6,6.62,3.13,9.88,4.81,2.64,1.35,5.43,2.36,8.1,3.64,2.35,1.14,4.63,2.45,7.02,3.5,2.19.97,4.22,2.24,6.37,3.29,2.02.99,3.82,2.38,5.7,3.64,1.3.87,2.7,1.63,4.06,2.39,1.64.91,2.78,2.59,4.72,2.99.91,2.13,3.59,2.26,4.72,4.2.41.7,1.54.55,2.1,1.19,1.46,1.68,3.36,2.94,5.12,4.14,1.79,1.22,3.22,2.82,5,4.05,2.79,1.93,5.79,3.57,8.51,5.62,1.49,1.12,3.05,2.27,4.81,3.13,1.35.65,2.52,1.84,3.93,2.55,3.17,1.6,5.79,4.07,8.96,5.65.44.22.8.53,1.04.93.34.52.56,1.14.21,1.7-.42.68-1.08.4-1.63.19-.98-.39-2.01-.66-2.8-1.52-.43-.47-1.17-.68-1.79-.99-.27-.13-.64-.12-.83-.32-1.89-1.94-4.5-2.77-6.61-4.34-1.49-1.12-3.31-1.8-4.52-3.32-.55-.68-1.49-.87-2.23-1.2-1.97-.89-3.55-2.33-5.31-3.47-1.79-1.15-3.82-2.13-5.24-3.85-.8-.98-2-1.46-3-2.17-2.01-1.45-3.65-3.34-5.84-4.53-.31-.17-.68-.33-.83-.6-.67-1.25-1.96-1.7-2.95-2.53-1.35-1.13-2.72-2.21-4.23-3.05-1.95-1.08-3.58-2.59-5.53-3.68-1.42-.79-2.74-1.83-4.15-2.69-2.36-1.43-4.71-2.92-7.29-3.89-1.21-.45-2.03-1.39-3.17-1.91-2.1-.95-4.27-1.78-6.36-2.75-2.03-.93-4.02-2-6.09-2.86-1.74-.72-3.47-1.49-5.06-2.48-2.44-1.52-5.21-2.37-7.56-4.14-1.42-1.06-3.34-1.78-5.24-.38-.82.61-1.8,1-2.81,1.29-.61.17-1.35.33-1.18,1.23.15.84.29,1.75,1.36,1.97,1.39.29,2.51,1.19,3.85,1.64,2.59.89,4.65,2.83,7.19,3.77,1.13.42,2.28.9,3.46,1.24,1.25.35,2.59.82,3.55,1.65,1.6,1.38,3.55,1.87,5.38,2.68,2.49,1.1,4.92,2.33,7.18,3.84,1.03.68,2.18,1.17,3.25,1.74,1.61.87,3.03,2.03,4.68,2.86,1.68.85,3.09,2.25,4.67,3.34,1.67,1.16,3.55,2.08,5.03,3.43,1.63,1.48,3.7,2.36,5.13,4.05.31.36.61.71,1.03.96.37.22.84.35,1.1.66,1.48,1.87,3.87,2.63,5.39,4.45.29.35.67.54,1.08.67.72.22,1.31.59,1.81,1.18.52.63,1.16,1.14,2.01,1.31.25.04.6.12.7.29.98,1.71,2.88,2.21,4.29,3.35,1.21.98,2.64,1.74,4.03,2.48,1.96,1.05,3.7,2.42,5.52,3.68,1.32.91,2.68,1.82,4.06,2.6,1.67.95,3.25,2.06,4.96,2.93.6.3,1.02.78,1.42,1.29.29.37.96.7.42,1.27-.54.56-1.18,1.1-2.04.61-1.94-1.09-3.95-2.07-5.79-3.26-1.47-.95-2.83-2.16-4.38-3.04-1.74-.99-3.37-2.16-5.09-3.17-1.5-.88-3.17-1.71-4.36-3.08-.59-.67-1.59-.6-2.1-1.19-1.2-1.43-2.89-2.11-4.41-2.98-1.8-1.02-3.26-2.48-5.03-3.51-.77-.45-1.53-.97-1.95-1.84-.35-.71-1.07-1.02-1.7-1.33-.91-.46-1.66-1.05-2.18-1.93-.23-.39-.55-.64-.97-.8-.89-.33-1.55-1.05-2.34-1.52-1.85-1.11-3.29-2.73-5.2-3.75-1.28-.68-2.36-1.71-3.45-2.59-2.6-2.07-5.6-3.42-8.31-5.27-2.22-1.51-4.49-3.04-7.17-3.86-1.44-.44-2.7-1.44-4.05-2.16-1.5-.8-3.1-1.4-4.6-2.18-1.33-.69-2.74-1.17-4.09-1.73-2.66-1.08-5.05-2.66-7.66-3.83-1.89-.84-3.8-1.65-5.68-2.52-.26-.12-.46-.37-.69-.58-2.25-2.07-3.55-2.26-6.32-1.03-.78.34-1.61.59-2.44.81-.78.21-1.48.62-1.46,1.4.03.8.48,1.5,1.31,1.93,2.63,1.36,5.38,2.47,7.98,3.91,1.32.73,2.76,1.32,4.16,1.94,1.31.58,2.64,1.15,3.93,1.79,2.14,1.06,4.38,1.93,6.53,2.98,1.83.89,3.59,1.92,5.38,2.87,1.02.54,2,1.23,3.09,1.54,1.69.49,2.8,2.02,4.55,2.34.04,0,.09.02.11.05,2.1,2.58,5.37,3.51,7.91,5.52,1.5,1.19,3.07,2.57,4.93,3.35.46.2.74.58,1.03.95.7.94,1.47,1.8,2.69,2.04.47.1.72.46.98.79.59.76,1.24,1.43,2.22,1.66.09.02.2.04.24.09,1.26,1.85,3.63,2.4,4.89,4.15.82,1.13,2.11,1.41,3.06,2.29,1.74,1.63,4.09,2.42,5.9,3.94,1.39,1.16,3.02,1.89,4.48,2.93,1.58,1.13,3.19,2.27,4.84,3.3,1.69,1.06,3.48,1.93,5.15,3.05,1.61,1.07,3.06,2.44,4.89,3.19.57.24,1.03.6,1.28,1.2.21.5.08.92-.22,1.32-.32.42-.7.2-1.06.11-2.34-.63-4.33-1.94-6.32-3.25-1.53-1.01-3.03-2.06-4.68-2.85-.04-.02-.09-.02-.12-.05-1.52-1.63-3.66-2.39-5.34-3.82-1.14-.98-2.61-1.59-3.98-2.28-.58-.29-1.14-.53-1.59-1.03-.6-.68-1.28-1.25-2.21-1.5-.78-.21-1.14-1.1-1.79-1.42-1.96-.94-3.44-2.51-5.14-3.78-1.76-1.31-3.8-2.3-5.18-4.1-.53-.69-1.15-1.26-2.01-1.55-.45-.14-.85-.44-1.11-.85-.53-.9-1.32-1.45-2.3-1.76-.29-.09-.65-.2-.79-.42-.96-1.55-2.59-2.2-4.05-3.06-3-1.76-5.51-4.18-8.64-5.8-2.62-1.35-5.14-3.02-7.74-4.45-2.99-1.62-6.07-3.16-9.3-4.3-1.32-.46-2.42-1.33-3.74-1.87-2.71-1.1-5.6-1.98-8.01-3.69-2.37-1.67-5.21-2.36-7.56-4.09-1.8-1.34-3.96-2.02-6.23-.72-.74.43-1.55.75-2.35,1.05-.82.31-1.23.94-1.05,1.7.18.8.45,1.73,1.5,1.9,1.51.23,2.66,1.28,4.09,1.73,1.74.54,3.3,1.53,4.86,2.48,2.84,1.73,6.23,2.31,9.01,4.02,2.25,1.39,4.69,2.24,7.01,3.41,1.4.71,2.85,1.37,4.18,2.18,1.52.92,3.08,1.83,4.63,2.68,1.6.87,3.1,1.91,4.69,2.79,1.51.85,3.27,1.48,4.38,2.99.22.31.52.64.85.77,1.85.73,3.31,2.11,4.87,3.24,1.68,1.22,3.47,2.36,5.01,3.8.15.14.25.44.42.48,1.86.45,2.66,2.05,3.73,3.36.19.22.48.4.75.46.94.22,1.6.75,2.13,1.54.39.58.95.98,1.64,1.2.24.08.56.15.69.33,1.24,1.69,3.28,2.23,4.89,3.35,2.68,1.85,5.2,3.97,8.22,5.38,1.39.66,2.64,1.86,4.04,2.69,1.93,1.14,3.55,2.76,5.7,3.56.88.32,1.36,1.16,1.92,1.87.21.26.22.57-.06.81-.43.36-.94.75-1.51.56-1.43-.45-2.86-.71-3.97-2.09-.9-1.12-2.51-1.68-3.82-2.47-.29-.18-.68-.22-.92-.44-1.53-1.45-3.58-2.07-5.2-3.43-1.23-1.03-2.56-2.15-4.2-2.62-.12-.03-.26-.09-.33-.18-1.2-1.54-2.95-2.35-4.61-3.14-2.33-1.11-3.96-3.09-5.88-4.63-1.64-1.32-3.91-2.03-4.95-4.13-.24-.48-.81-.78-1.36-.93-.73-.2-1.32-.6-1.77-1.2-.4-.54-.97-.85-1.57-1.1-.36-.15-.74-.26-.97-.58-1.69-2.25-4.34-3.21-6.43-4.88-2.47-1.99-5.41-3.12-7.91-5.07-2.13-1.66-4.64-2.97-7.32-3.79-1.21-.38-2.32-1.13-3.37-1.78-2.72-1.68-5.78-2.55-8.57-3.98-2.42-1.25-4.98-2.2-7.32-3.65-1.14-.71-2.51-1.23-3.8-1.78-1.47-.63-2.92-1.46-4.16-2.48-1.25-1.01-2.76-1.11-4.11-1.72-.42-.19-.84.1-1.22.27-1.07.48-2.12.97-3.18,1.45-.77.36-1.69.57-1.67,1.7.02,1.02.88,1.58,1.57,1.86,3.88,1.6,7.39,3.93,11.18,5.71.73.34,1.54.44,2.31.74,3.57,1.44,6.78,3.6,10.42,4.93,2.37.87,4.47,2.47,6.77,3.58,1.68.8,3.15,2.03,4.98,2.56.27.08.54.29.71.52.61.82,1.38,1.31,2.38,1.64,1.22.39,2.2,1.36,3.16,2.11,1.4,1.08,2.95,1.87,4.34,2.92.74.57,1.36,1.31,2.36,1.45.04,0,.1.03.12.06,1.19,1.82,2.99,2.94,4.74,4.12.06.05.09.17.15.2,2.1,1.08,3.42,3.22,5.62,4.16.08.03.2.03.24.08,1.2,1.84,3.62,2.22,4.83,4.07.38.58.9,1,1.66,1.1.36.05.75.25,1.03.49,1.81,1.49,3.88,2.6,5.8,3.91,1.71,1.16,3.71,1.87,5.12,3.58.83,1.01,2.35,1.49,3.59,2.12.61.3,1.52.36,1.19,1.31-.28.85-1.25,1.09-1.92.87-1.49-.48-3.01-1.01-4.25-2.04-.13-.11-.2-.33-.34-.37-2-.52-3.31-2.16-5.03-3.14-1.62-.92-3.4-1.58-4.71-3.15-1.22-1.48-3.24-2.12-4.86-3.2-.57-.38-1.22-.61-1.63-1.22-.42-.61-1-1.03-1.71-1.3-.73-.29-1.38-.7-1.82-1.38-.21-.34-.49-.6-.86-.75-1.5-.6-2.59-1.65-3.35-3.06-.12-.21-.32-.49-.53-.54-1.5-.38-2.33-1.7-3.54-2.44-2.18-1.33-4.02-3.15-6.24-4.34-1.37-.74-2.4-1.74-3.51-2.73-.77-.69-1.86-.96-2.79-1.51-1.53-.91-2.98-2.02-4.69-2.6-1.16-.4-1.87-1.42-3.01-1.93-3.46-1.55-6.79-3.41-10.22-5.03-1.42-.67-2.95-1.2-4.31-1.9-2.38-1.23-5.05-1.77-7.26-3.43-1.18-.9-2.62-1.55-4.08-2.07-1.63-.59-3.04-1.74-4.62-2.43-1.68-.73-2.72-1.88-3.45-3.22l45.54-23.54c.07-.02.14-.05.22-.08,1.32-.61,2.69-1.18,3.92-1.96.15-.1.29-.2.42-.31l5.36-2.77h0c.66.23,1.21-.25,1.8-.63.61-.39,1.24-.79,1.89-1.1.6-.27,1.11-.6,1.53-.97h.01s5.49-2.84,5.49-2.84c.42.19.85-.09,1.25-.31,1.24-.68,2.48-1.37,3.71-2.08.21-.12.42-.28.61-.49l5.13-2.66h0c.43.07.83-.13,1.23-.52.1-.1.21-.19.32-.28h.01s12.37-6.4,12.37-6.4l.08-.04,17.93-9.27c.42,0,.81-.28,1.2-.46.78-.36,1.52-.81,2.33-1.12.77-.3,1.38-.71,1.87-1.2l6.29-3.25,54.26-28.04s.02.02.04.02c.55.34,1.25.56,1.27,1.32.02.74-.42,1.26-1.05,1.66-1.41.92-2.93,1.64-4.45,2.36-5.48,2.61-10.61,5.88-15.98,8.71-7.58,3.98-15.22,7.85-22.81,11.79-5.92,3.06-11.81,6.2-17.56,9.59-2.7,1.59-5.57,2.91-8.32,4.42-8.04,4.41-16.3,8.39-24.57,12.36-1.72.83-1.9,2.15-.21,3.13,1.79,1.05,3.77,1.79,5.68,2.63.56.25,1.1-.05,1.6-.3,7.56-3.94,15.34-7.44,22.8-11.56,1.09-.6,2.23-1.12,3.32-1.74,4.7-2.68,9.36-5.44,14.1-8.04,3.89-2.12,7.85-4.11,11.84-6.04,5.66-2.73,11.31-5.51,17.09-7.98,6.89-2.94,13.68-6.1,20.42-9.37.71-.35,1.49-.86,2.17.11.75,1.08.63,1.74-.55,2.42-3.76,2.19-7.77,3.9-11.69,5.77-3.35,1.58-6.72,3.11-10.13,4.56-3.19,1.35-6.54,2.28-9.7,3.76-6.95,3.25-13.28,7.62-20.22,10.87-2.15,1-4.17,2.25-6.28,3.32-6.03,3.06-12.09,6.04-18.11,9.12-2.75,1.41-5.42,2.98-8.11,4.52-.75.43-1.49.86-2.32,1.1-.78.22-1.18.79-1.04,1.56.14.8.36,1.53,1.44,1.7,1.47.22,2.83.8,4.14,1.56,1.48.86,3.04,1.3,4.86.41,3.84-1.87,7.3-4.37,11.04-6.42,3.62-1.99,7.23-4,10.92-5.86,6.8-3.43,13.59-6.92,20.5-10.11,12.05-5.56,24.04-11.21,35.94-17.05.08-.03.15-.07.23-.1.84-.32,1.88-.92,2.5-.06.59.83-.14,1.81-.7,2.55-.61.79-1.49,1.29-2.37,1.74-6.75,3.44-13.58,6.76-20.53,9.78-3.34,1.45-6.81,2.65-10.25,3.85-3.56,1.26-6.74,3.25-10.06,4.98-1.75.92-3.47,1.89-5.19,2.89-7.39,4.31-15.01,8.21-22.72,11.93-1.59.76-3.14,1.61-4.71,2.41-.77.4-1.73.76-1.63,1.77.1,1.06,1.02,1.77,1.93,2.07.93.31,1.67.82,2.49,1.27,1.43.8,2.78,1.11,4.46.19,5.23-2.89,10.67-5.42,15.86-8.4,4.87-2.79,9.82-5.37,14.95-7.61,3.82-1.66,7.81-2.93,11.59-4.72,7.47-3.54,14.95-7.05,22.3-10.84,1.23-.63,2.37-1.41,3.55-2.12.33-.2.68-.38,1.01-.55.66-.33,1.25-.34,1.68.36.41.68.2,1.29-.3,1.75-.47.43-1.02.79-1.6,1.08-7.48,3.81-14.97,7.61-22.58,11.15-2.46,1.14-4.89,2.34-7.33,3.51-9.31,4.08-18.47,8.5-27.55,13.04-2.93,1.46-5.78,3.07-8.64,4.65-1.27.7-1.21,1.05-.34,2.18,1.35,1.73,3.39,2.26,5.2,3.17.61.3,1.15-.2,1.68-.45,5.79-2.77,11.36-5.97,17.24-8.54,12.43-5.43,24.59-11.45,36.76-17.42,1.55-.76,3.06-1.59,4.39-2.69.63-.53,1.36-.89,2.1-1.25.71-.34,1.2-.21,1.64.46.47.69.42,1.28-.16,1.84-.25.23-.56.41-.85.58-4.53,2.65-9.15,5.15-13.72,7.75-3.97,2.27-8.07,4.31-12.27,6.04-4.96,2.05-9.86,4.29-14.88,6.22-4.42,1.7-8.62,3.94-12.8,6.15-1.6.84-3.17,1.72-4.73,2.63-1.08.64-1.11,1.1-.22,2.01,1.49,1.5,3.32,2.39,5.31,3,.62.19,1.18.02,1.75-.24,14.56-6.88,29.15-13.68,43.55-20.9,2.24-1.13,4.19-2.69,6.28-4.06.95-.62,1.67-.58,2.26.34.59.91.27,1.68-.59,2.17-1.42.82-2.9,1.52-4.31,2.35-3.7,2.19-7.25,4.62-11.05,6.62-6.13,3.24-12.4,6.2-18.73,9.01-3.34,1.49-6.78,2.76-10.16,4.16-1.39.57-2.91.76-4.24,1.51-.68.38-1.56.6-1.47,1.58.11,1.09.45,2.19,1.64,2.56.88.27,1.51.73,2.05,1.45.75.98,1.67,1.21,2.83.65,2.9-1.43,5.83-2.78,8.73-4.18,8.02-3.89,16.05-7.78,24.04-11.71,2.35-1.16,4.53-2.63,6.58-4.28.59-.47,1.19-.45,1.64-.08.51.42.91,1.06.51,1.82-.36.69-.96,1.1-1.63,1.42-5.78,2.7-11.03,6.34-16.61,9.42-5.91,3.26-11.99,6.2-18.32,8.62-2.1.8-2.3,2.04-.84,3.73,1.11,1.29,2.79,1.22,3.99,2.18.36.29.91-.09,1.33-.3,6.52-3.33,13.24-6.25,19.63-9.82,1.9-1.06,3.87-2.06,5.41-3.69.59-.61,1.39-.95,2.2-.36.55.41.48,2.04-.05,2.61Z"/>
        <path class="cls-1" d="m22.87,159.51c-.17-.5-.68-1.02-.14-1.53.53-.49.99.04,1.5.22,2.33.8,4.27,2.39,6.52,3.26,3.49,1.33,6.44,3.69,9.96,4.92.35.13.73.34.97.61,1.51,1.72,3.7,2.39,5.49,3.64,1.49,1.04,3.15,1.86,4.49,3.11.6.56,1.15,1.17,2,1.35.04,0,.09.03.12.06,1.54,1.81,3.87,2.65,5.4,4.45.25.3.46.6.88.7.96.23,1.66.86,2.29,1.59.54.63,1.12,1.19,1.94,1.42.57.16.91.58,1.26,1.04.67.88,1.32,1.8,2.52,2.08.51.12.9.49,1.17.96.32.54.81.93,1.34,1.18,2.64,1.21,4.85,3.12,7.4,4.46.39.21.7.59.46,1.06-.22.43-.65.48-1.12.34-1.5-.44-3.15-.48-4.5-1.34-1.61-1.04-3.74-1.35-4.75-3.27-.11-.21-.34-.48-.55-.51-1.49-.24-2.12-1.85-3.27-2.27-2.16-.79-2.98-3.25-5.24-3.77-.47-.11-.7-.61-1-.98-.52-.64-1.1-1.2-1.92-1.44-.16-.05-.33-.13-.45-.24-1.3-1.27-2.7-2.38-4.19-3.45-1.72-1.23-3.58-2.23-5.22-3.58-1.67-1.38-3.5-2.59-5.4-3.63-2.39-1.3-4.79-2.62-7.17-3.93-3.07-1.7-6.22-3.2-9.38-4.72-.72-.35-1.05-1.11-1.44-1.79Z"/>
      </g>
    </g>
  </g>
</svg>